<?xml version="1.0" standalone="no"?>
<!DOCTYPE svg PUBLIC "-//W3C//DTD SVG 20010904//EN"
 "http://www.w3.org/TR/2001/REC-SVG-20010904/DTD/svg10.dtd">
<svg version="1.0" xmlns="http://www.w3.org/2000/svg"
 width="1200.000000pt" height="900.000000pt" viewBox="0 0 1200.000000 900.000000"
 preserveAspectRatio="xMidYMid meet">

<g transform="translate(0.000000,900.000000) scale(0.100000,-0.100000)"
fill="#000000" stroke="none">
<path d="M3700 6310 c-209 -28 -371 -78 -540 -166 -342 -178 -616 -479 -758
-834 -181 -451 -136 -987 118 -1406 22 -36 40 -70 40 -74 0 -5 4 -10 8 -12 4
-1 30 -32 57 -68 74 -98 229 -247 335 -322 99 -71 267 -163 361 -197 176 -65
381 -101 570 -101 299 1 573 77 828 231 34 22 65 39 67 39 2 0 14 9 26 19 13
10 57 46 98 79 91 72 184 170 267 282 238 320 351 752 299 1135 -36 261 -117
478 -257 695 -100 154 -281 336 -434 435 -33 22 -62 42 -65 45 -3 4 -50 29
-105 57 -117 58 -312 124 -440 148 -104 20 -377 28 -475 15z m248 -252 c16
-16 16 -100 0 -116 -8 -8 -45 -12 -103 -12 -273 0 -572 -122 -778 -317 -135
-129 -248 -294 -307 -448 -12 -33 -26 -69 -30 -80 -67 -172 -66 -500 1 -720
116 -374 417 -676 792 -793 141 -44 234 -55 415 -50 168 6 260 24 391 75 80
33 233 113 251 133 3 3 30 24 60 47 150 114 282 286 359 467 49 115 89 265 93
351 l3 60 -413 3 -413 2 3 63 3 62 475 0 475 0 3 -70 c10 -222 -74 -507 -214
-722 -63 -97 -85 -124 -184 -223 -78 -77 -91 -88 -150 -130 -19 -13 -37 -27
-40 -30 -12 -15 -152 -89 -225 -119 -44 -19 -89 -38 -100 -42 -39 -17 -141
-40 -240 -54 -299 -43 -606 18 -871 175 -110 65 -157 102 -265 210 -99 98
-163 180 -210 271 -19 35 -36 66 -39 69 -5 5 -10 16 -45 95 -24 56 -49 137
-71 230 -15 65 -19 119 -19 285 1 199 2 209 33 328 31 118 90 268 119 303 7 8
13 19 13 22 0 13 71 117 129 188 63 79 128 143 201 199 25 19 47 38 50 41 15
19 202 122 275 153 143 59 260 85 435 96 63 3 117 7 121 8 3 1 10 -3 17 -10z
m-482 -653 c150 -76 135 -293 -25 -350 -59 -20 -96 -19 -148 6 -82 40 -120
116 -103 207 24 133 154 198 276 137z m488 9 c3 -9 6 -297 6 -640 l0 -624 154
0 154 0 4 -61 c2 -36 -1 -63 -7 -65 -6 -3 -107 -3 -225 -2 l-215 3 -3 690 c-1
380 0 696 3 703 7 19 121 16 129 -4z"/>
<path d="M7881 5294 c-178 -38 -334 -165 -413 -334 -9 -20 -29 -76 -44 -125
-26 -85 -28 -101 -28 -290 -1 -203 4 -239 45 -368 67 -210 248 -366 473 -406
175 -32 445 9 597 90 46 25 119 77 131 94 4 5 8 151 8 323 l0 313 -302 -3
-303 -3 -3 -122 -3 -122 123 -3 123 -3 3 -117 3 -116 -28 -19 c-74 -51 -238
-58 -328 -13 -127 64 -175 191 -175 464 0 230 31 344 115 428 54 54 108 72
199 66 96 -6 151 -37 188 -105 15 -26 29 -65 33 -85 l7 -38 174 0 c201 0 186
-11 155 112 -34 131 -93 223 -183 283 -23 17 -45 33 -48 36 -11 14 -150 57
-217 68 -95 15 -223 13 -302 -5z"/>
<path d="M6370 4535 l0 -755 495 0 495 0 0 140 0 140 -315 0 -315 0 -2 613 -3
612 -177 3 -178 2 0 -755z"/>
</g>
</svg>
